<?xml version="1.0" encoding="UTF-8"?>
<svg version="1.1" xmlns="http://www.w3.org/2000/svg" width="512" height="512">
<path d="M0 0 C1.15894775 0.35288086 1.15894775 0.35288086 2.34130859 0.71289062 C44.51928893 13.78090987 83.72829754 40.17394094 111 75 C111.80179687 75.99644531 112.60359375 76.99289063 113.4296875 78.01953125 C130.97237134 100.02256865 143.50883268 125.24963077 152 152 C152.26393555 152.82918945 152.52787109 153.65837891 152.79980469 154.51269531 C154.4832525 159.95379856 155.83310846 165.42638942 157 171 C157.19464844 171.91185059 157.38929688 172.82370117 157.58984375 173.76318359 C165.03919541 210.35873221 163.07678922 250.38398038 152 286 C151.76474609 286.77263184 151.52949219 287.54526367 151.28710938 288.34130859 C138.21909013 330.51928893 111.82605906 369.72829754 77 397 C76.00355469 397.80179687 75.00710938 398.60359375 73.98046875 399.4296875 C51.97743135 416.97237134 26.75036923 429.50883268 0 438 C-0.82918945 438.26393555 -1.65837891 438.52787109 -2.51269531 438.79980469 C-7.95379856 440.4832525 -13.42638942 441.83310846 -19 443 C-19.91185059 443.19464844 -20.82370117 443.38929688 -21.76318359 443.58984375 C-78.9994678 455.24080199 -142.38505923 443.86572034 -191.23828125 411.58984375 C-211.37950958 397.87947084 -229.9359926 382.23678993 -245 363 C-245.80179688 362.00355469 -246.60359375 361.00710938 -247.4296875 359.98046875 C-264.97237134 337.97743135 -277.50883268 312.75036923 -286 286 C-286.26393555 285.17081055 -286.52787109 284.34162109 -286.79980469 283.48730469 C-288.4832525 278.04620144 -289.83310846 272.57361058 -291 267 C-291.19464844 266.08814941 -291.38929688 265.17629883 -291.58984375 264.23681641 C-299.03919541 227.64126779 -297.07678922 187.61601962 -286 152 C-285.76474609 151.22736816 -285.52949219 150.45473633 -285.28710938 149.65869141 C-272.21909013 107.48071107 -245.82605906 68.27170246 -211 41 C-210.00355469 40.19820312 -209.00710937 39.39640625 -207.98046875 38.5703125 C-179.38866329 15.77450506 -145.65334272 1.43423306 -110 -6 C-109.17193848 -6.17789062 -108.34387695 -6.35578125 -107.49072266 -6.5390625 C-72.89833022 -13.60760732 -33.50677759 -10.42080268 0 0 Z " fill="#00A651" transform="translate(323,37)"/>
<path d="M0 0 C1.66386137 1.31076713 3.31095164 2.64320761 4.9375 4 C5.71222656 4.61359375 6.48695313 5.2271875 7.28515625 5.859375 C21.30167848 17.49573308 32.77232344 36.72392411 34.9375 55 C36.78641741 81.16997802 31.91337689 104.32429716 14.57373047 124.59423828 C1.71132748 139.04731976 -16.68171025 149.67976461 -36.0625 152 C-62.22430995 153.47837158 -84.08170262 148.76647794 -104.46875 131.3671875 C-116.555215 120.33646794 -123.95554493 107.43693238 -129.0625 92 C-129.3821875 91.09507812 -129.701875 90.19015625 -130.03125 89.2578125 C-135.93517305 69.96073068 -132.03578895 47.88704401 -123.14697266 30.17578125 C-112.17461001 9.88403526 -93.95914566 -4.99307339 -72.0625 -12 C-71.07121094 -12.3196875 -70.07992187 -12.639375 -69.05859375 -12.96875 C-45.6732336 -19.41988384 -19.62080803 -13.9129366 0 0 Z " fill="#FAFDFC" transform="translate(365.0625,159)"/>
<path d="M0 0 C8.2751546 5.24010538 16.85221782 11.32910799 22.359375 19.58984375 C22.26953125 21.59765625 22.26953125 21.59765625 21.421875 23.71484375 C20.0370258 27.24859689 19.23033235 30.35334396 18.91015625 34.11328125 C18.28704475 39.41525023 17.57966491 44.20237025 14.359375 48.58984375 C7.38571478 53.61093156 -2.1138305 57.39684048 -10.640625 58.58984375 C-13.23901367 57.76269531 -13.23901367 57.76269531 -15.640625 56.58984375 C-16.34292236 56.35450928 -17.04521973 56.1191748 -17.76879883 55.87670898 C-23.82904622 53.75366518 -29.01249192 51.03204337 -32.640625 45.58984375 C-36.00370715 35.54832051 -36.88279229 22.51612798 -32.640625 12.58984375 C-25.02945192 2.42250144 -12.02744433 -6.42293995 0 0 Z " fill="#03A753" transform="translate(353.640625,163.41015625)"/>
<path d="M0 0 C2.5898907 0.88876231 4.58095848 2.13735938 6.86376953 3.65039062 C7.74419922 4.22917969 8.62462891 4.80796875 9.53173828 5.40429688 C10.44310547 6.01144531 11.35447266 6.61859375 12.29345703 7.24414062 C14.10804569 8.44283804 15.92312568 9.64079211 17.73876953 10.83789062 C18.54072754 11.37091797 19.34268555 11.90394531 20.16894531 12.453125 C22.12674419 13.76889033 22.12674419 13.76889033 24.16845703 14.74414062 C24.4169617 19.45770075 24.59765886 24.16740508 24.71777344 28.88598633 C24.76785845 30.48789905 24.83595686 32.08935912 24.92285156 33.68969727 C25.62654089 46.98942555 25.62654089 46.98942555 22.06713867 51.27294922 C19.50543161 53.06265772 16.98319333 54.39843854 14.16845703 55.74414062 C12.54204044 56.87958366 10.93391411 58.04226157 9.35595703 59.24414062 C5.82942898 61.83775976 5.82942898 61.83775976 2.85009766 61.41577148 C-1.74624295 60.26459404 -6.09955808 58.49952806 -10.51904297 56.80664062 C-11.48132813 56.44634766 -12.44361328 56.08605469 -13.43505859 55.71484375 C-14.35351562 55.36486328 -15.27197266 55.01488281 -16.21826172 54.65429688 C-17.05574951 54.335979 -17.8932373 54.01766113 -18.75610352 53.68969727 C-20.83154297 52.74414062 -20.83154297 52.74414062 -22.83154297 50.74414062 C-23.48583984 48.76049805 -23.48583984 48.76049805 -24.05029297 46.34960938 C-24.26041016 45.47626953 -24.47052734 44.60292969 -24.68701172 43.703125 C-24.89970703 42.78853516 -25.11240234 41.87394531 -25.33154297 40.93164062 C-26.80902454 34.30427512 -26.80902454 34.30427512 -29.05029297 27.91992188 C-30.08964683 25.02532137 -29.88470486 23.63025236 -28.83154297 20.74414062 C-23.87013204 14.38582759 -8.86468167 -1.23836129 0 0 Z " fill="#03A753" transform="translate(287.83154296875,160.255859375)"/>
<path d="M0 0 C2.296875 1.63671875 2.296875 1.63671875 4.75 3.6875 C9.08031171 7.25326113 13.48589101 10.67115985 18 14 C16.61150216 25.64546575 12.35456095 42.11492433 3 50 C-3.76520878 52.23882964 -12.12423443 52.93287078 -19 51 C-25.76962449 46.2633449 -30.08894793 37.84296099 -31.59375 29.84375 C-31.42532259 27.04785506 -30.74933085 24.69448501 -30 22 C-30.00902344 20.85789063 -30.01804687 19.71578125 -30.02734375 18.5390625 C-29.84158509 14.07132846 -29.44019171 11.79140897 -27 8 C-20.45966708 3.7507705 -7.8286897 -2.97572516 0 0 Z " fill="#02A652" transform="translate(372,223)"/>
<path d="M0 0 C6.13546528 3.47247261 9.60972279 8.76261119 11.61328125 15.44580078 C12.7082874 22.67809517 9.41771111 28.84258524 6 35 C5.70988037 35.70624512 5.41976074 36.41249023 5.12084961 37.14013672 C4 39 4 39 2.2644043 39.81933594 C-4.24008377 41.08814027 -10.57038004 41.29910664 -17.1875 41.25 C-18.24130859 41.25773437 -19.29511719 41.26546875 -20.38085938 41.2734375 C-30.81521019 41.24713794 -30.81521019 41.24713794 -35 39 C-36.57421875 36.6796875 -36.57421875 36.6796875 -37.6875 33.875 C-38.08582031 32.88886719 -38.48414063 31.90273438 -38.89453125 30.88671875 C-39.25933594 29.93410156 -39.62414062 28.98148437 -40 28 C-40.33386719 27.24332031 -40.66773438 26.48664063 -41.01171875 25.70703125 C-43.51772492 19.84456433 -42.72631024 16.28408676 -40.83984375 10.3515625 C-33.91080667 -4.71465145 -14.05738957 -3.94643929 0 0 Z " fill="#01A652" transform="translate(333,260)"/>
<path d="M0 0 C4.56866769 1.32604103 9.0474852 2.75694558 13.51171875 4.40234375 C14.41341797 4.69560547 15.31511719 4.98886719 16.24414062 5.29101562 C22.64571724 7.68862772 22.64571724 7.68862772 24.53808594 11.24804688 C25.31280939 13.81111448 25.84902032 16.3313984 26.32421875 18.96484375 C26.69289063 20.11210937 27.0615625 21.259375 27.44140625 22.44140625 C29.22194911 29.83891936 28.3308845 35.40245181 24.57421875 41.90234375 C21.81845984 46.04393559 19.23281144 48.47934373 14.33935547 49.72412109 C10.84764796 50.11970806 7.52384423 50.18923894 4.01171875 50.08984375 C2.86670898 50.065271 1.72169922 50.04069824 0.54199219 50.01538086 C-4.1010818 49.60735933 -7.42811778 49.29603533 -10.70336914 45.80151367 C-12.26582743 43.2474907 -13.50925311 40.71971662 -14.67578125 37.96484375 C-15.21847656 36.90394531 -15.76117188 35.84304688 -16.3203125 34.75 C-17.563186 31.85273301 -18.66369681 28.95068674 -19.67578125 25.96484375 C-20.00191406 25.03414062 -20.32804688 24.1034375 -20.6640625 23.14453125 C-21.40843959 19.93868637 -21.59924343 18.14264008 -20.67578125 14.96484375 C-17.55050311 11.00215802 -13.40475538 8.0308969 -9.29980469 5.15283203 C-7.45163589 3.84988722 -7.45163589 3.84988722 -5.12109375 1.5859375 C-2.67578125 -0.03515625 -2.67578125 -0.03515625 0 0 Z " fill="#02A652" transform="translate(264.67578125,222.03515625)"/>
<path d="M0 0 C2 2 2 2 2.5 4.375 C2 7 2 7 -0.54345703 8.94628906 C-4.13113913 11.19642626 -7.9051952 12.85360129 -11.8046875 14.484375 C-12.57699203 14.81343842 -13.34929657 15.14250183 -14.14500427 15.48153687 C-16.71922666 16.57688115 -19.29700014 17.66357932 -21.875 18.75 C-24.65308689 19.92726139 -27.43041057 21.10631006 -30.20765686 22.28555298 C-32.20469882 23.13341466 -34.20205262 23.98054215 -36.19969177 24.82699585 C-43.8587319 28.07649733 -51.49687066 31.37281047 -59.12848663 34.6860199 C-62.96130732 36.34896984 -66.7963155 38.00687087 -70.63123322 39.66497803 C-73.78367247 41.02852612 -76.93465218 42.39526751 -80.08270264 43.7689209 C-83.63033521 45.31671969 -87.18406499 46.85018848 -90.73828125 48.3828125 C-92.33717445 49.0846315 -92.33717445 49.0846315 -93.96836853 49.80062866 C-94.95503006 50.22365265 -95.94169159 50.64667664 -96.95825195 51.08251953 C-97.81530228 51.45458527 -98.6723526 51.826651 -99.55537415 52.20999146 C-102.22296306 53.07205304 -104.21521362 53.29518026 -107 53 C-109 51 -109 51 -109.125 47.875 C-109.08375 46.92625 -109.0425 45.9775 -109 45 C-101.21925611 41.01239087 -93.37458284 37.33455216 -85.31640625 33.9453125 C-84.23379013 33.48599838 -83.15117401 33.02668427 -82.03575134 32.55345154 C-78.54619841 31.07365581 -75.05446802 29.59908662 -71.5625 28.125 C-66.71921954 26.07618129 -61.87693125 24.02502995 -57.03515625 21.97265625 C-55.83746613 21.46526413 -54.639776 20.95787201 -53.40579224 20.43510437 C-46.05961532 17.31707768 -38.73631064 14.15200944 -31.43359375 10.93359375 C-30.5694838 10.55400513 -29.70537384 10.1744165 -28.81507874 9.7833252 C-24.85215081 8.04209852 -20.89411254 6.29119161 -16.94360352 4.52197266 C-15.55637477 3.91127836 -14.16893718 3.30105812 -12.78125 2.69140625 C-11.60626953 2.16748291 -10.43128906 1.64355957 -9.22070312 1.10375977 C-5.88281885 -0.04015888 -3.49858662 -0.37977246 0 0 Z " fill="#F7FCFA" transform="translate(221,227)"/>
<path d="M0 0 C2 2 2 2 2.4375 4.4375 C2.293125 5.283125 2.14875 6.12875 2 7 C-1.87788028 9.72930531 -6.22851727 11.53267493 -10.55859375 13.421875 C-11.31558563 13.75499695 -12.07257751 14.0881189 -12.85250854 14.43133545 C-15.37917656 15.5413913 -17.90821953 16.64591086 -20.4375 17.75 C-21.31006439 18.1322876 -22.18262878 18.5145752 -23.08163452 18.90844727 C-42.16684169 27.2693605 -61.33977425 35.42521416 -80.52319336 43.55761719 C-81.65612823 44.03829651 -82.78906311 44.51897583 -83.95632935 45.01422119 C-86.09072705 45.91951876 -88.22560955 46.8236745 -90.36105347 47.72650146 C-91.31094147 48.12935364 -92.26082947 48.53220581 -93.23950195 48.94726562 C-94.47963799 49.47205505 -94.47963799 49.47205505 -95.74482727 50.00744629 C-98.00477682 50.9625973 -98.00477682 50.9625973 -100.09440613 52.1517334 C-102.905107 53.40290434 -105.07469828 52.6648413 -108 52 C-108.33 49.69 -108.66 47.38 -109 45 C-104.98851634 42.45136331 -100.81036674 40.49826237 -96.45703125 38.62109375 C-95.71234589 38.29681396 -94.96766052 37.97253418 -94.20040894 37.63842773 C-91.73927329 36.56795909 -89.27593824 35.50265786 -86.8125 34.4375 C-85.08104924 33.68582824 -83.34968686 32.93395284 -81.6184082 32.18188477 C-66.9483065 25.81615471 -52.2502298 19.51499933 -37.5402832 13.24194336 C-36.30041908 12.7123275 -36.30041908 12.7123275 -35.0355072 12.17201233 C-33.41184353 11.47874197 -31.78755761 10.78692689 -30.16261292 10.09666443 C-26.06038939 8.34591645 -21.99028154 6.54552019 -17.94775391 4.66064453 C-17.13039261 4.28343765 -16.31303131 3.90623077 -15.47090149 3.51759338 C-13.92085483 2.79901973 -12.37584706 2.06943588 -10.83708191 1.32701111 C-6.87376121 -0.50311837 -4.18161543 -1.6532864 0 0 Z " fill="#F7FCFA" transform="translate(237,168)"/>
<path d="M0 0 C2 2 2 2 2.21240234 4.83349609 C0.82855758 8.44776645 0.33515747 8.70879813 -2.97412109 10.37353516 C-4.77190533 11.1610397 -6.58114497 11.92268579 -8.3984375 12.6640625 C-9.37847748 13.08579742 -10.35851746 13.50753235 -11.36825562 13.94204712 C-13.47986747 14.84746803 -15.59605407 15.7422782 -17.71618652 16.62756348 C-20.96188303 17.9840694 -24.19362314 19.36944216 -27.42285156 20.76464844 C-34.14493426 23.66319092 -40.88354596 26.52185732 -47.625 29.375 C-52.38711907 31.39228571 -57.14880811 33.41058287 -61.91015625 35.4296875 C-63.05651047 35.91552307 -64.20286469 36.40135864 -65.38395691 36.9019165 C-71.79495476 39.62347196 -78.18845354 42.37951668 -84.55859375 45.1953125 C-85.87870835 45.77563333 -87.19885607 46.35587882 -88.51904297 46.93603516 C-90.80030947 47.94291081 -93.07709676 48.96002894 -95.34814453 49.98974609 C-96.3173584 50.41594238 -97.28657227 50.84213867 -98.28515625 51.28125 C-99.08832275 51.64283203 -99.89148926 52.00441406 -100.71899414 52.37695312 C-103.49673194 53.13568018 -105.26118849 52.80905359 -108 52 C-109 51 -109 51 -109.375 48.125 C-109.25125 47.09375 -109.1275 46.0625 -109 45 C-105.16169965 42.22761499 -100.76473656 40.4643857 -96.44140625 38.578125 C-95.68432373 38.24495773 -94.92724121 37.91179047 -94.1472168 37.56852722 C-91.62064716 36.4585011 -89.09169932 35.35402002 -86.5625 34.25 C-85.69060028 33.86804474 -84.81870056 33.48608948 -83.92037964 33.09255981 C-64.77422887 24.70599034 -45.54166254 16.52129785 -26.30102539 8.35449219 C-25.1644751 7.87200516 -24.0279248 7.38951813 -22.85693359 6.89241028 C-20.70904129 5.98096442 -18.56086079 5.0701973 -16.41235352 4.16020203 C-14.98729492 3.55581047 -14.98729492 3.55581047 -13.53344727 2.93920898 C-12.70224869 2.58712875 -11.87105011 2.23504852 -11.0146637 1.87229919 C-7.03092628 0.14744013 -4.45531451 -0.23867756 0 0 Z " fill="#F8FCFA" transform="translate(294,315)"/>
<path d="M0 0 C2 2 2 2 2.375 4.4375 C2 7 2 7 0.28500366 8.51980591 C-2.06847334 10.04435609 -4.35222049 11.15616678 -6.93505859 12.24560547 C-7.92006851 12.66433929 -8.90507843 13.08307312 -9.91993713 13.51449585 C-10.98534225 13.96088409 -12.05074738 14.40727234 -13.1484375 14.8671875 C-14.26101425 15.3386319 -15.373591 15.81007629 -16.5198822 16.29580688 C-19.51744435 17.56511659 -22.51693443 18.82972943 -25.51730728 20.09237671 C-28.61638267 21.39797938 -31.71285423 22.7097217 -34.80932617 24.02148438 C-35.42134227 24.28073574 -36.03335836 24.53998711 -36.6639204 24.80709457 C-37.27422257 25.06562336 -37.88452475 25.32415215 -38.51332092 25.59051514 C-40.96027864 26.6269702 -43.40749248 27.66282078 -45.85496521 28.69805908 C-55.03017673 32.58081772 -64.17964706 36.5188406 -73.3125 40.5 C-76.58877511 41.92056261 -79.86563618 43.33976559 -83.14257812 44.75878906 C-85.02057645 45.57455662 -86.89693635 46.39410839 -88.77148438 47.21777344 C-91.19686343 48.28215492 -93.62836118 49.33084828 -96.0625 50.375 C-96.71839111 50.66826172 -97.37428223 50.96152344 -98.05004883 51.26367188 C-101.74571252 52.82565821 -104.16083213 53.31024812 -108 52 C-109 51 -109 51 -109.0625 47.9375 C-109.041875 46.968125 -109.02125 45.99875 -109 45 C-96.89773997 38.6471352 -84.38685116 33.33774722 -71.8125 28 C-69.63881496 27.07358874 -67.46531414 26.14674514 -65.29199219 25.21948242 C-60.93520062 23.36108727 -56.57755248 21.50472361 -52.21923828 19.64990234 C-46.53668322 17.230332 -40.85885712 14.79989958 -35.18359375 12.36328125 C-34.36643387 12.01248505 -33.54927399 11.66168884 -32.70735168 11.30026245 C-29.65054262 9.98779035 -26.59388177 8.67497333 -23.53726196 7.36206055 C-21.49905247 6.48687678 -19.46050612 5.61248236 -17.421875 4.73828125 C-15.72949707 4.01185425 -15.72949707 4.01185425 -14.00292969 3.27075195 C-13.01196289 2.85140381 -12.02099609 2.43205566 -11 2 C-10.10829102 1.6186792 -9.21658203 1.2373584 -8.29785156 0.84448242 C-5.39140506 -0.22366446 -3.07161842 -0.27303275 0 0 Z " fill="#F8FCFA" transform="translate(243,287)"/>
<path d="M0 0 C5.28 0.33 10.56 0.66 16 1 C20 11.75 20 11.75 20 14 C14.79176976 12.60903107 11.32003495 10.29848856 7.1875 7 C6.60291016 6.54882812 6.01832031 6.09765625 5.41601562 5.6328125 C1.14275298 2.28550595 1.14275298 2.28550595 0 0 Z " fill="#11AB5C" transform="translate(265,280)"/>
</svg>
